<svg width="1450" height="435" viewBox="0 0 1920 522" fill="none" xmlns="http://www.w3.org/2000/svg">
<path d="M569.003 546.745C601.183 514.997 601.534 463.172 569.786 430.992L453.25 545.962C484.998 578.142 536.822 578.493 569.003 546.745Z" fill="#F7B476"/>
<path d="M337.268 546.745C305.087 514.997 304.737 463.172 336.485 430.992L453.021 545.962C421.273 578.142 369.449 578.493 337.268 546.745Z" fill="#F7B476"/>
<rect x="441.526" y="403.904" width="23.218" height="144.468" fill="#F7B476"/>
<circle cx="453.135" cy="331.67" r="118.67" fill="#F7B476"/>
<circle cx="453.135" cy="331.67" r="68.3642" fill="#FFEFB9"/>
<path d="M1572 546.745C1604.18 514.997 1604.53 463.172 1572.79 430.992L1456.25 545.962C1488 578.142 1539.82 578.493 1572 546.745Z" fill="#F7B476"/>
<path d="M1340.27 546.745C1308.09 514.997 1307.74 463.172 1339.49 430.992L1456.02 545.962C1424.27 578.142 1372.45 578.493 1340.27 546.745Z" fill="#F7B476"/>
<rect x="1444.53" y="403.904" width="23.218" height="144.468" fill="#F7B476"/>
<circle cx="1456.14" cy="331.67" r="118.67" fill="#F7B476"/>
<circle cx="1456.14" cy="331.67" r="68.3642" fill="#FFEFB9"/>
<path d="M355.387 540.187C407.474 488.8 408.041 404.919 356.655 352.833L168.034 538.919C219.42 591.005 303.301 591.573 355.387 540.187Z" fill="#2A7628"/>
<path d="M-19.6895 540.187C-71.7758 488.8 -72.3432 404.919 -20.9569 352.833L167.664 538.919C116.278 591.005 32.3967 591.573 -19.6895 540.187Z" fill="#2A7628"/>
<rect x="149.059" y="308.99" width="37.5799" height="233.83" fill="#2A7628"/>
<circle cx="167.849" cy="192.075" r="192.075" fill="#2A7628"/>
<circle cx="167.849" cy="192.075" r="110.652" fill="#FFEFB9"/>
<path d="M1939.39 540.187C1991.47 488.8 1992.04 404.919 1940.65 352.833L1752.03 538.919C1803.42 591.005 1887.3 591.573 1939.39 540.187Z" fill="#2A7628"/>
<path d="M1564.31 540.187C1512.22 488.8 1511.66 404.919 1563.04 352.833L1751.66 538.919C1700.28 591.005 1616.4 591.573 1564.31 540.187Z" fill="#2A7628"/>
<rect x="1733.06" y="308.99" width="37.5799" height="233.83" fill="#2A7628"/>
<circle cx="1751.85" cy="192.075" r="192.075" fill="#2A7628"/>
<circle cx="1751.85" cy="192.075" r="110.652" fill="#FFEFB9"/>
</svg>
